# This file uses centimeters as units for non-parametric coordinates.

v -0.010684 -0.003303 0.010658
v 0.010632 -0.003303 0.010658
v -0.006531 0.035027 0.006505
v 0.006479 0.035027 0.006505
v -0.006531 0.035027 -0.006505
v 0.006479 0.035027 -0.006505
v -0.010684 -0.003303 -0.010658
v 0.010632 -0.003303 -0.010658
vt 0.375000 0.000000
vt 0.625000 0.000000
vt 0.375000 0.250000
vt 0.625000 0.250000
vt 0.375000 0.500000
vt 0.625000 0.500000
vt 0.375000 0.750000
vt 0.625000 0.750000
vt 0.875000 0.000000
vt 0.875000 0.250000
vt 0.125000 0.000000
vt 0.125000 0.250000
vn 0.000000 0.107702 0.994183
vn 0.000000 0.107702 0.994183
vn 0.000000 0.107702 0.994183
vn 0.000000 0.107702 0.994183
vn 0.000000 0.107702 -0.994183
vn 0.000000 0.107702 -0.994183
vn 0.000000 0.107702 -0.994183
vn 0.000000 0.107702 -0.994183
vn 0.994183 0.107702 0.000000
vn 0.994183 0.107702 0.000000
vn 0.994183 0.107702 0.000000
vn 0.994183 0.107702 0.000000
vn -0.994183 0.107702 0.000000
vn -0.994183 0.107702 0.000000
vn -0.994183 0.107702 0.000000
vn -0.994183 0.107702 0.000000
g pCube3
f 1/1/1 2/2/2 3/3/3
f 3/3/3 2/2/2 4/4/4
f 5/5/5 6/6/6 7/7/7
f 7/7/7 6/6/6 8/8/8
f 2/2/9 8/9/10 4/4/11
f 4/4/11 8/9/10 6/10/12
f 7/11/13 1/1/14 5/12/15
f 5/12/15 1/1/14 3/3/16
